<svg id="Layer_1" data-name="Layer 1" xmlns="http://www.w3.org/2000/svg" viewBox="0 0 230.48 254.73"><defs><style>.cls-1{fill:#95c11f;}.cls-2{fill:#fff;}</style></defs><path class="cls-1" d="M183.27,0H47.21S0,0,0,47.21V173.83S0,221,47.21,221h63.6c3.08.15,10.74,1.46,10.74,10.8,0,16.34-.64,22.89,2.78,22.89s11.76-12.45,19.75-21.34C150.23,226.55,154,221.71,162,221h21.26s47.21,0,47.21-47.21V47.21S230.48,0,183.27,0Z"/><path class="cls-2" d="M56.42,53.36V54.8c0,5.91-17.28,11.81-27.51,14.84l5.91,18.43a82.28,82.28,0,0,0,21.6-8.93v48.4H77.59v-83C61,44.58,56.42,44.86,56.42,53.36Z"/><path class="cls-2" d="M166.46,53.36V54.8c0,4.22-8.83,8.44-17.6,11.61-4.28-14-14.69-22.7-32.81-22.7-25.21,0-35.15,16.28-35.15,40S91.42,129,116.05,129c23.52,0,34.4-20,35.1-42.84a74,74,0,0,0,15.31-7v48.4h21.17v-83C171.07,44.58,166.46,44.86,166.46,53.36Zm-50.41,58.19c-9.08,0-13-12.24-13-27.22s3.32-23.19,13-23.19,13,8.21,13,23.19S125,111.55,116.05,111.55Z"/><path class="cls-2" d="M50.74,142.14h7.75v22c0,5.8,2.15,8.47,6.45,8.47,7.49,0,9.51-7,9.51-14.13v-15.7h3v21c0,6.19,2.28,8.79,6.19,8.79,6.77,0,10.16-7,10.16-15,0-3.84-.65-8.27-3.19-15.5h3.06a45.66,45.66,0,0,1,3.12,15.5c0,8.6-4.16,17.59-13.09,17.59-3.52,0-8-1.63-8.21-8.6-1.69,6.32-6,8.6-10.74,8.6-6.19,0-9.19-3.91-9.19-11V144.68H50.74Z"/><path class="cls-2" d="M114.78,141.55a34.35,34.35,0,0,1,11.4,2.35v24c0,3.19.84,4.3,2.86,4.3a8.22,8.22,0,0,0,2.28-.39l.59,2.21a8.32,8.32,0,0,1-3.39.65c-3.52,0-4.82-2.08-5.08-5.4h-.13c-2.74,2.67-6.38,5.79-11.33,5.79-5.67,0-9.71-2.28-9.71-15.44C102.27,144,108.33,141.55,114.78,141.55Zm-9.51,17.72c0,11.4,2.73,13.16,7.29,13.16,4,0,7.82-3.19,10.62-6.13V145.79a22.41,22.41,0,0,0-8.21-1.63C110.35,144.16,105.27,145.65,105.27,159.27Z"/><path class="cls-2" d="M131.06,142.14h7.82v18c.07,6.38,3.84,9.83,11,6.64l6.38-3V142.14h3v30.94c0,10.88-4.89,16.54-12.77,16.54-5.47,0-9.31-2.8-9.31-8.53s4.17-9.25,8-11.27l-.07-.13c-5.14.52-9.18-2.41-9.18-9.64V144.68h-4.89Zm25.21,24.36s-3.71,1.56-7.29,3.39c-4.95,2.47-8.86,5.66-8.86,11,0,4.29,2.93,6.12,6.51,6.12,6.12,0,9.64-5,9.64-13.94Z"/><path class="cls-2" d="M183.31,145.07a35.64,35.64,0,0,0-7.56-.91c-4.69,0-7,1.17-7,5.08,0,3.51,1.95,5.14,7.1,6.71l1.82.58c6.91,2.09,9.91,3.72,9.91,9.51,0,6.84-4.11,9-10.36,9a44.45,44.45,0,0,1-12.31-2l.52-2.6a46.08,46.08,0,0,0,11.66,2c4.3,0,7.49-1,7.49-6.39,0-4-2-5.08-7.82-6.84l-1.89-.58c-5.4-1.63-9.12-3.52-9.12-9.38,0-6.06,3.91-7.69,9.71-7.69A37.67,37.67,0,0,1,186,143.11v7.1h-2.73Z"/></svg>