<?xml version="1.0" encoding="utf-8"?>
<!-- Generator: Adobe Illustrator 26.0.3, SVG Export Plug-In . SVG Version: 6.00 Build 0)  -->
<svg version="1.0" id="katman_1" xmlns="http://www.w3.org/2000/svg" xmlns:xlink="http://www.w3.org/1999/xlink" x="0px" y="0px"
	 viewBox="0 0 600 450" style="enable-background:new 0 0 600 450;" xml:space="preserve">
<style type="text/css">
	.st0{clip-path:url(#SVGID_00000121985515307414708950000011709398409708469383_);fill:#bfd823;}
</style>
<g id="logo-small" transform="translate(0 -0.2)">
	<g id="Group_20" transform="translate(5.28 5.432)">
		<g id="Group_19">
			<path id="Path_84" class="st0" d="M231.6,114v131.2h-12.3V138L173,221.8h-8.8L118,137.4v107.2h-12.3V114h13.5l49.8,90.8
				l49.2-90.8H231.6z M365.7,247.5l-23.4-23.4c-8.2,13.5-22.8,21.7-38.7,21.1c-24,0-41-15.8-41-35.1c0-16.4,11.1-26.4,31-36.9
				c-11.1-11.1-18.2-19.9-18.2-31c0.6-16.4,14.6-28.7,30.5-28.1c0,0,0,0,0.6,0c18.2,0,31,12.3,31,28.1c0,15.2-12.3,25.2-25.2,32.8
				l28.1,29.3l17-25.8l10.5,6.4l-18.7,28.7l26.4,26.4L365.7,247.5z M301.3,181.4c-18.7,9.4-26.4,17-26.4,28.1
				c0,12.9,12.3,24.6,28.7,24.6c14.6,0,22.3-6.4,30.5-18.7L301.3,181.4z M287.8,142.1c0,7.6,4.7,13.5,16.4,25.2
				c12.9-7.6,20.5-15.2,20.5-25.2c0.6-9.4-7-17.6-16.4-18.2c-0.6,0-1.8,0-2.3,0c-10-0.6-18.2,7.6-18.7,17.6
				C287.8,142.1,287.8,142.1,287.8,142.1L287.8,142.1z M482.8,141.5l-11.1,4.1c-5.3-14.6-19.3-23.4-34.6-22.8
				c-18.7,0-31.6,8.8-31.6,24.6c0,32.8,78.5,15.8,78.5,62.1c0,22.3-18.7,36.9-46.9,36.9c-21.7,1.2-42.2-10.5-52.1-30.5l11.1-6.4
				c7,15.8,22.8,26.4,40.4,25.2c23.4,0,34.6-10.5,34.6-26.4c0-32.8-78.5-17-78.5-62.1c0-26.4,25.2-35.1,43.9-35.1
				C456.5,112.2,475.8,121.6,482.8,141.5L482.8,141.5z"/>
		</g>
	</g>
	<g id="Group_22" transform="translate(13.681 35.056)">
		<g id="Group_21" transform="translate(0 0)">
			<path id="Path_85" class="st0" d="M152.3,294.2h19.9v4.7h-25.8v-42.2h5.9V294.2z"/>
			<path id="Path_86" class="st0" d="M179.9,277.8c-0.6-11.1,8.2-20.5,19.3-21.1c0.6,0,1.2,0,1.8,0c11.7-0.6,21.7,8.8,22.3,20.5
				c0.6,11.7-8.8,21.7-20.5,22.3C191,300,181,290.7,180.4,279C179.9,278.4,179.9,278.4,179.9,277.8z M216.2,277.8
				c1.2-8.2-5.3-15.2-13.5-16.4c-0.6,0-1.2,0-1.2,0c-8.2,0-15.2,6.4-15.2,14.1c0,0.6,0,1.2,0,2.3c-1.2,8.2,5.3,15.8,13.5,16.4
				c0.6,0,1.2,0,1.8,0C210.9,294.8,216.2,287.7,216.2,277.8L216.2,277.8z"/>
			<path id="Path_87" class="st0" d="M273,298.9h-5.9l-25.2-32.8v32.8h-5.9v-42.2h5.9l25.2,34v-34h5.9V298.9z"/>
			<path id="Path_88" class="st0" d="M289.4,298.9v-42.2H304c11.1-0.6,20.5,8.2,20.5,19.3c0,0.6,0,1.2,0,1.8
				c1.2,10.5-7,20.5-17.6,21.1c-1.2,0-1.8,0-2.9,0H289.4z M295.2,262v31.6h9.4c9.4,0,14.6-5.3,14.6-15.8c0.6-7.6-4.7-14.6-12.3-15.8
				c-0.6,0-1.2,0-1.8,0H295.2L295.2,262z"/>
			<path id="Path_89" class="st0" d="M429.4,298.9h-6.4l-24.6-32.8v32.8h-5.9v-42.2h5.9l25.2,34v-34h5.9V298.9z"/>
		</g>
	</g>
	<path id="Path_90" class="st0" d="M350.6,312.5c-0.6-11.1,7.6-20.5,18.7-21.1c0.6,0,1.2,0,1.8,0c11.7-0.6,21.7,8.8,22.3,20.5
		c0.6,11.7-8.8,21.7-20.5,22.3c-11.7,0.6-21.7-8.8-22.3-20.5C350.6,313.1,350.6,313.1,350.6,312.5z M386.9,312.5
		c0.6-8.2-5.3-15.2-13.5-16.4c-0.6,0-1.2,0-1.2,0c-8.2,0-14.6,5.9-15.2,14.1c0,0.6,0,1.2,0,2.3c-1.2,8.2,5.3,15.8,13.5,16.4
		c0.6,0,1.2,0,1.8,0C381.1,329.5,386.9,322.5,386.9,312.5z"/>
</g>
</svg>
